# xmcd
#
# Track frame offsets:
#	150
#	10358
#	23359
#	35926
#	50384
#	64367
#	79272
#	95572
#	119664
#	132277
#	148243
#	164907
#	180149
#	195006
#	210884
#	223293
#	233282
#	253483
#	270264
#
# Disc length: 3934 seconds
#
# Revision: 0
# Processed by: cddbd v1.5.2PL0 Copyright (c) Steve Scherf et al.
# Submitted via: EasyCDDAExtractor 9.0.0.1
#
DISCID=100f5c13
DTITLE=Various Artist - What A Day
DYEAR=2000
DGENRE=Country
TTITLE0=Gospel Heirs and the Gospel Gathering Choir - When we all get to heave
TTITLE0=n
TTITLE1=Gospel Heirs - When we all get together
TTITLE2=Gospel Heirs and the Gospel Gathering Choir - The windows of heaven
TTITLE3=Gospel Heirs and the Gospel Gathering Choir - I know who holds tomorro
TTITLE3=w
TTITLE4=Faith Polson - I just saw Jesus
TTITLE5=Gospel Heirs and the Gospel Gathering Choir - Bigger than all my probl
TTITLE5=ems
TTITLE6=Gospel Heirs and the Gospel Gathering Choir - Sheltered in the arms of
TTITLE6=God
TTITLE7=Gospel Heirs and the Gospel Gathering Choir - Great is thy faithfulnes
TTITLE7=s
TTITLE8=Gospel Heirs - He started the whole world
TTITLE9=Ruth Box - How can you say no?
TTITLE10=Gospel Heirs and the Gospel Gathering Choir - In the cross
TTITLE11=Ron Bernard - Without Him
TTITLE12=Gospel Heirs and the Gospel Gathering Choir - It is no secret
TTITLE13=Gospel Heirs - I'm Free
TTITLE14=Kerrusso Trio - No Not One
TTITLE15=Gospel Heirs and the Gospel Gathering Choir - I just feel like someth
TTITLE15=ing good
TTITLE16=Jane Gallan - Calvary's Lamb
TTITLE17=Gospel Heirs and Jess Hewitt - What A Day
TTITLE18=Gospel Heirs - The King is coming
EXTD=
EXTT0=
EXTT1=
EXTT2=
EXTT3=
EXTT4=
EXTT5=
EXTT6=
EXTT7=
EXTT8=
EXTT9=
EXTT10=
EXTT11=
EXTT12=
EXTT13=
EXTT14=
EXTT15=
EXTT16=
EXTT17=
EXTT18=
PLAYORDER=
